<svg width="361" height="290" viewBox="0 0 361 290" fill="none" xmlns="http://www.w3.org/2000/svg">
<path fill-rule="evenodd" clip-rule="evenodd" d="M308.966 185.554H323.504C343.985 185.554 360.647 171.016 360.647 153.145V93.3905C360.647 75.5194 343.985 60.9808 323.504 60.9808H308.966V10.4899C308.966 4.69703 303.584 0 296.944 0H63.7022C57.0633 0 51.6803 4.69641 51.6803 10.4899V235.671C51.6803 248.236 56.6068 259.807 64.8447 269.021H12.0218C5.38224 269.021 0 273.717 0 279.51C0 285.303 5.38224 290 12.0218 290C26.4702 290 334.295 290 348.626 290C355.265 290 360.648 285.304 360.648 279.51C360.648 273.717 355.266 269.02 348.626 269.02H295.803C304.04 259.807 308.967 248.234 308.967 235.67L308.966 185.554ZM308.966 81.9607H323.504C330.728 81.9607 336.604 87.088 336.604 93.3911V153.145C336.604 159.448 330.728 164.575 323.504 164.575H308.966V81.9607ZM246.704 269.021H113.943C96.2139 269.021 81.2696 258.432 76.97 244.123H283.677C279.378 258.433 264.433 269.021 246.704 269.021ZM284.923 223.143H75.724V20.9793H284.923V223.143Z" fill="black"/>
<path d="M242.98 107.942H194.012V59.0219C194.012 51.2783 187.763 45 180.019 45C172.274 45 166.029 51.2783 166.029 59.0253V107.976H117.037C109.293 107.976 102.997 114.255 103 122.002C102.997 125.872 104.56 129.42 107.095 131.953C109.632 134.494 113.133 136.098 117 136.098H166.029V184.981C166.029 188.855 167.566 192.362 170.103 194.892C172.64 197.43 176.131 199 180.005 199C187.746 199 194.012 192.722 194.012 184.981V136.095H242.98C250.724 136.095 257.003 129.762 257 122.019C256.997 114.278 250.717 107.942 242.98 107.942Z" fill="black"/>
</svg>
