<?xml version="1.0" ?><!DOCTYPE svg  PUBLIC '-//W3C//DTD SVG 1.1//EN'  'http://www.w3.org/Graphics/SVG/1.1/DTD/svg11.dtd'><!-- Uploaded to: SVG Repo, www.svgrepo.com, Generator: SVG Repo Mixer Tools -->
<svg fill="#000000" width="800px" height="800px" viewBox="0 0 16 16" style="fill-rule:evenodd;clip-rule:evenodd;stroke-linejoin:round;stroke-miterlimit:1.41421;" version="1.1" xml:space="preserve" xmlns="http://www.w3.org/2000/svg" xmlns:serif="http://www.serif.com/" xmlns:xlink="http://www.w3.org/1999/xlink"><rect height="15.36" id="_5" style="fill:none;" width="15.36" x="0" y="0"/><path d="M9.054,12.244c0.043,0 0.083,0.017 0.113,0.047c0.03,0.03 0.047,0.071 0.047,0.113c0,0.239 0,0.659 0,0.659c-0.004,0.32 -0.274,0.595 -0.59,0.607c-1.072,0.013 -2.145,0.013 -3.217,0c-0.312,-0.012 -0.578,-0.277 -0.59,-0.59c-0.003,-0.225 -0.004,-0.45 -0.005,-0.675c0,-0.043 0.017,-0.084 0.047,-0.114c0.03,-0.03 0.071,-0.047 0.114,-0.047c0.689,0 3.393,0 4.081,0Zm0.582,-1.463c0,-0.026 0.017,-0.048 0.042,-0.054c0,0 0,0 0,0c0.136,-0.034 0.27,-0.06 0.397,-0.059c0.452,0.02 0.844,0.414 0.862,0.871c0.003,0.232 0.005,0.466 -0.058,0.689c-0.12,0.425 -0.44,0.782 -0.85,0.955c-0.097,0.039 -0.195,0.087 -0.29,0.129c-0.023,0.01 -0.049,0.007 -0.07,-0.007c-0.02,-0.013 -0.033,-0.037 -0.033,-0.062c0,-0.094 0,-0.226 0,-0.298c0,-0.031 0.019,-0.058 0.049,-0.069c0.154,-0.058 0.303,-0.121 0.427,-0.217c0.32,-0.246 0.426,-0.656 0.408,-1.121c-0.016,-0.25 -0.25,-0.485 -0.494,-0.452c-0.106,0.019 -0.216,0.054 -0.319,0.084c-0.017,0.005 -0.035,0.001 -0.049,-0.009c-0.014,-0.011 -0.022,-0.027 -0.022,-0.044c0,-0.096 0,-0.259 0,-0.336Zm-4.658,-0.333c-0.043,0 -0.084,0.017 -0.114,0.047c-0.03,0.03 -0.047,0.07 -0.047,0.113c-0.001,0.353 -0.003,0.706 -0.004,1.059c0,0.043 0.017,0.083 0.047,0.114c0.03,0.03 0.071,0.047 0.114,0.047c1.358,-0.006 2.717,-0.059 4.074,-0.01c0.044,0.002 0.086,-0.014 0.117,-0.045c0.032,-0.03 0.049,-0.071 0.049,-0.115c0,-0.265 0,-0.778 0,-1.04c0,-0.043 -0.017,-0.084 -0.047,-0.114c-0.031,-0.03 -0.072,-0.047 -0.115,-0.046c-1.358,0.019 -2.716,-0.004 -4.074,-0.01Zm4.524,-0.889c0.059,0 0.107,0.048 0.107,0.107c0,0.077 0,0.181 0,0.258c0,0.059 -0.048,0.107 -0.107,0.107c-0.035,0 -0.068,0 -0.077,0c-0.002,0 -0.004,-0.001 -0.005,-0.001c-1.602,-0.072 -3.207,0 -4.81,0.001l-0.081,0c-0.028,0 -0.055,-0.012 -0.075,-0.032c-0.021,-0.02 -0.032,-0.047 -0.032,-0.075c0,-0.077 0,-0.181 0,-0.258c0,-0.059 0.048,-0.107 0.107,-0.107c0.672,0 4.302,0 4.973,0Zm-0.969,-1.107c0.029,0 0.057,0.012 0.077,0.032c0.02,0.021 0.031,0.048 0.03,0.077c-0.003,0.152 -0.005,0.303 -0.005,0.454c-0.001,0.029 -0.012,0.056 -0.033,0.076c-0.02,0.02 -0.047,0.031 -0.076,0.031c-1.007,-0.014 -2.014,-0.014 -3.02,0c-0.029,0 -0.057,-0.011 -0.077,-0.031c-0.02,-0.02 -0.032,-0.047 -0.032,-0.076c0,-0.126 0,-0.331 0,-0.456c0,-0.059 0.048,-0.107 0.107,-0.107c0.492,0 2.533,0 3.029,0Zm-0.184,-0.69c0.044,0 0.083,0.026 0.099,0.066c0.008,0.019 0.016,0.04 0.025,0.061c0.013,0.033 0.009,0.07 -0.01,0.1c-0.02,0.029 -0.054,0.047 -0.089,0.047c-0.524,0 -2.193,0 -2.717,0c-0.035,0 -0.068,-0.018 -0.088,-0.047c-0.02,-0.03 -0.024,-0.067 -0.011,-0.1c0.009,-0.021 0.018,-0.042 0.025,-0.061c0.016,-0.04 0.056,-0.066 0.099,-0.066c0.393,0 2.275,0 2.667,0Zm-2.701,-2.8c0,-0.072 -0.058,-0.13 -0.13,-0.13l0,0c-0.065,0.001 -0.12,0.055 -0.121,0.121c0,0 0,0 0,0c0,0.003 0,1.912 0,2.328c0,0.018 0.007,0.035 0.02,0.047c0.013,0.012 0.031,0.019 0.048,0.018c0,0 0,0 0,0c0.002,0 0.004,0 0.005,0c0,0 0,0 0,0c0.048,0 0.093,-0.019 0.126,-0.052c0.033,-0.034 0.052,-0.079 0.052,-0.126c0,-0.478 0,-1.788 0,-2.206Zm2.87,-0.13c-0.036,0 -0.07,0.014 -0.095,0.039c-0.025,0.025 -0.04,0.059 -0.04,0.094c0,0.422 0,1.722 0,2.198c0,0.098 0.078,0.179 0.176,0.182c0.005,0.001 0.01,0.001 0.014,0.001c0.004,0 0.007,0 0.011,0.001c0,0 0,0 0,0c0.018,0.001 0.036,-0.006 0.05,-0.018c0.014,-0.013 0.021,-0.031 0.021,-0.05c-0.003,-0.371 -0.02,-2.187 -0.021,-2.331c-0.001,-0.049 -0.032,-0.092 -0.079,-0.108c-0.013,-0.002 -0.025,-0.007 -0.037,-0.008c0,0 0,0 0,0c0,0 0,0 0,0Zm-0.551,0.178c0,-0.101 -0.081,-0.183 -0.182,-0.183c-0.513,-0.001 -1.026,0.002 -1.538,0.004c-0.101,0 -0.183,0.082 -0.183,0.183c0,0.462 0,1.677 0,2.143c0,0.049 0.02,0.096 0.054,0.13c0.035,0.034 0.082,0.053 0.131,0.053c0.511,-0.006 1.023,-0.015 1.534,-0.011c0.048,0 0.095,-0.019 0.13,-0.053c0.035,-0.035 0.054,-0.082 0.054,-0.13c0,-0.465 0,-1.674 0,-2.136Zm-1.903,-2.908l-0.416,0l-0.021,0c-0.28,-0.012 -0.29,-0.404 0,-0.416c0.02,0 0.06,0 0.06,0l2.568,-0.006c0,0 0.111,0.004 0.167,0.006c0.184,0.024 0.196,0.407 -0.018,0.416l-0.021,0l-0.416,0c0,0 0,1.577 0,2.124c0,0.049 -0.019,0.096 -0.054,0.13c-0.034,0.034 -0.081,0.054 -0.13,0.053c-0.512,-0.003 -1.023,-0.003 -1.535,0c-0.048,0.001 -0.095,-0.019 -0.13,-0.053c-0.034,-0.034 -0.054,-0.081 -0.054,-0.13c0,-0.547 0,-2.124 0,-2.124Z"/></svg>