<?xml version="1.0" encoding="iso-8859-1"?>
<!-- Uploaded to: SVG Repo, www.svgrepo.com, Generator: SVG Repo Mixer Tools -->
<svg fill="#000000" height="800px" width="800px" version="1.1" id="Layer_1" xmlns="http://www.w3.org/2000/svg" xmlns:xlink="http://www.w3.org/1999/xlink" 
	 viewBox="0 0 512 512" xml:space="preserve">
<g>
	<g>
		<path d="M53.917,28.333C41.813,15.588,21.583,15.327,9.154,27.755C-3.274,40.184-3.014,60.414,9.731,72.518l80.868,76.799
			l40.117-40.117L53.917,28.333z"/>
	</g>
</g>
<g>
	<g>
		<path d="M458.081,236.005l-18.427-73.413l10.312-79.703c0.822-6.351-4.125-11.979-10.528-11.979H294.585
			c-6.404,0-11.35,5.628-10.528,11.979l10.312,79.703l-18.426,73.413H458.081z"/>
	</g>
</g>
<g>
	<g>
		<path d="M510.84,446.204l-44.765-178.351H267.947l2.81-11.196L152.656,132.302L113.7,171.257l144.136,136.885l-34.653,138.063
			c-6.014,23.963,12.106,47.194,36.813,47.194h214.032C498.734,493.399,516.855,470.168,510.84,446.204z"/>
	</g>
</g>
</svg>