<?xml version="1.0" ?>
<!DOCTYPE svg  PUBLIC '-//W3C//DTD SVG 1.1//EN'  'http://www.w3.org/Graphics/SVG/1.1/DTD/svg11.dtd'>
<!-- Uploaded to: SVG Repo, www.svgrepo.com, Generator: SVG Repo Mixer Tools -->
<svg width="800px" height="800px" viewBox="0 0 16 16" style="fill-rule:evenodd;clip-rule:evenodd;stroke-linejoin:round;stroke-miterlimit:1.41421;" version="1.1" xml:space="preserve" xmlns="http://www.w3.org/2000/svg" xmlns:serif="http://www.serif.com/" xmlns:xlink="http://www.w3.org/1999/xlink">
<rect height="15.36" id="_1" style="fill:none;" width="15.36" x="0" y="0"/>
<clipPath id="_clip1">
<rect height="15.36" id="_11" width="15.36" x="0" y="0"/>
</clipPath>
<g clip-path="url(#_clip1)">
<path d="M9.613,7.421c0.198,0 0.359,0.161 0.359,0.359c0,1.095 0,4.315 0,4.315c-0.004,0.44 -0.35,0.761 -0.781,0.915c-0.259,0.109 -0.04,0.565 -0.238,0.588c-1.664,0.148 -3.342,0.063 -5.011,0c-0.142,-0.009 -0.106,-0.224 -0.106,-0.393c-0.008,-0.14 -0.138,-0.195 -0.138,-0.195c-0.449,-0.16 -0.769,-0.476 -0.78,-0.898c-0.014,-1.444 -0.003,-2.888 -0.001,-4.332c0,-0.198 0.161,-0.359 0.359,-0.359c1.21,0 5.127,0 6.337,0Zm0.781,0.529c0,-0.046 0.032,-0.086 0.077,-0.096c0.075,-0.016 0.176,-0.037 0.231,-0.047c0.17,-0.031 0.369,-0.062 0.492,-0.06c0.652,0.024 1.214,0.574 1.239,1.238c0.007,0.58 0.053,1.272 -0.055,1.684c-0.127,0.484 -0.476,0.897 -0.936,1.113c-0.181,0.081 -0.533,0.252 -0.881,0.414c-0.036,0.017 -0.079,0.014 -0.113,-0.008c-0.034,-0.021 -0.054,-0.059 -0.054,-0.099c0,-0.071 0,-0.148 0,-0.203c0,-0.047 0.028,-0.089 0.071,-0.108c0.439,-0.191 0.942,-0.426 1.101,-0.561c0.558,-0.473 0.464,-1.382 0.453,-2.221c-0.018,-0.491 -0.5,-0.899 -0.973,-0.826c-0.171,0.03 -0.364,0.08 -0.528,0.113c0,0 -0.001,0 -0.003,0.001c-0.03,0.006 -0.06,-0.001 -0.084,-0.019c-0.023,-0.019 -0.037,-0.047 -0.037,-0.077c0,-0.076 0,-0.172 0,-0.238Zm-3.098,0.898c0.139,0.079 0.262,0.185 0.359,0.315c0.798,1.066 -0.376,3.162 -1.796,2.769c-0.095,-0.026 -0.187,-0.064 -0.272,-0.113c-0.069,-0.04 -0.134,-0.088 -0.194,-0.141c-0.05,-0.045 -0.096,-0.093 -0.137,-0.146c-0.758,-0.953 0.056,-2.761 1.38,-2.839c0.03,-0.002 0.06,-0.002 0.09,-0.002c0.197,0.005 0.391,0.058 0.561,0.153c0.003,0.001 0.006,0.003 0.009,0.004Zm0.133,0.778c-0.027,-0.059 -0.085,-0.099 -0.15,-0.102c-0.065,-0.003 -0.127,0.031 -0.158,0.088c-0.321,0.561 -0.655,1.114 -0.983,1.671c-0.034,0.059 -0.032,0.133 0.006,0.19c0.038,0.056 0.106,0.086 0.174,0.076c0.585,-0.107 1.189,-0.772 1.197,-1.488c0.002,-0.146 -0.028,-0.297 -0.086,-0.435Zm-0.598,-0.378c0.016,-0.028 0.017,-0.063 0.002,-0.092c-0.015,-0.029 -0.044,-0.048 -0.077,-0.05c0,0 0,0 0,0c-0.021,-0.001 -0.041,-0.001 -0.061,-0.001c-0.874,0.015 -1.565,1.232 -1.246,1.968c0.027,0.058 0.084,0.095 0.148,0.097c0.063,0.001 0.122,-0.032 0.153,-0.088c0.353,-0.615 0.722,-1.222 1.081,-1.834Zm-0.357,-7.567c0.143,0.024 0.22,0.181 0.153,0.309c0,0 -0.126,0.229 -0.182,0.434c-0.206,0.755 0.349,1.51 0.451,2.277c0.067,0.5 -0.026,1.018 -0.265,1.462c0,0 -0.087,0.118 -0.201,0.108c-0.14,-0.013 -0.235,-0.156 -0.164,-0.304c0,0 0.126,-0.249 0.18,-0.469c0.192,-0.783 -0.368,-1.565 -0.462,-2.332c-0.058,-0.476 0.044,-0.969 0.286,-1.384c0,0 0.041,-0.114 0.204,-0.101Zm-1.586,1.013c0.142,0.019 0.226,0.182 0.157,0.31c0,0 -0.249,0.524 -0.071,0.976c0.103,0.248 0.222,0.494 0.257,0.76c0.046,0.344 -0.019,0.697 -0.182,1.003c0,0 -0.085,0.116 -0.195,0.11c-0.137,-0.009 -0.235,-0.172 -0.17,-0.304c0,0 0.248,-0.573 0.057,-1.056c-0.1,-0.244 -0.218,-0.483 -0.25,-0.744c-0.04,-0.329 0.029,-0.668 0.197,-0.954c0,0 0.054,-0.111 0.2,-0.101Zm3.161,0c0.142,0.019 0.226,0.182 0.157,0.31c0,0 -0.249,0.524 -0.071,0.976c0.103,0.248 0.222,0.494 0.257,0.76c0.046,0.344 -0.019,0.697 -0.182,1.003c0,0 -0.053,0.08 -0.122,0.101c-0.153,0.046 -0.321,-0.135 -0.243,-0.295c0,0 0.248,-0.573 0.057,-1.056c-0.1,-0.244 -0.218,-0.483 -0.25,-0.744c-0.04,-0.329 0.029,-0.668 0.197,-0.954c0,0 0.054,-0.111 0.2,-0.101Z"/>
</g>
</svg>