<?xml version="1.0" ?><!DOCTYPE svg  PUBLIC '-//W3C//DTD SVG 1.1//EN'  'http://www.w3.org/Graphics/SVG/1.1/DTD/svg11.dtd'><!-- Uploaded to: SVG Repo, www.svgrepo.com, Generator: SVG Repo Mixer Tools -->
<svg fill="#000000" width="800px" height="800px" viewBox="0 0 16 16" style="fill-rule:evenodd;clip-rule:evenodd;stroke-linejoin:round;stroke-miterlimit:1.41421;" version="1.1" xml:space="preserve" xmlns="http://www.w3.org/2000/svg" xmlns:serif="http://www.serif.com/" xmlns:xlink="http://www.w3.org/1999/xlink"><rect height="15.36" id="_11" style="fill:none;" width="15.36" x="0" y="0"/><path d="M12.539,12.421c-0.014,0.004 -0.028,0.006 -0.043,0.006l-3.832,0c-0.011,0 -0.021,-0.001 -0.032,-0.003l-1.466,0.001c-0.012,0.001 -0.025,0.002 -0.037,0.002c-0.793,0.01 -1.586,0.01 -2.378,0c-0.006,0 -0.012,-0.001 -0.018,-0.001m-1.997,0.001c-0.257,0.004 -0.266,0.664 -0.005,0.674c3.584,0.044 7.169,0 10.754,0c0.251,0 0.267,-0.664 0.005,-0.674c-0.176,-0.002 -0.527,-0.006 -0.527,-0.006l-10.014,0.006c0,0 -0.142,0 -0.213,0Zm0.28,-1.542l0,1.108c0.346,-0.004 0.693,-0.008 1.039,-0.011c-0.017,-0.033 -0.032,-0.066 -0.045,-0.1c-0.203,-0.072 -0.403,-0.146 -0.567,-0.273c-0.224,-0.174 -0.369,-0.447 -0.427,-0.724Zm10.189,-5.952c-0.164,0.002 -0.329,0.004 -0.494,0.005l0,0.579c-0.007,0.116 -0.096,0.208 -0.215,0.215l-0.234,0l0,4.477c0.084,0.003 0.168,0.006 0.252,0.009c0.11,0.014 0.193,0.103 0.197,0.215l0,1.554c0.165,0.002 0.33,0.004 0.494,0.006l0,-7.06Zm-0.924,7.05l0,-1.335l-0.235,0l0,0l-2.933,0l0,0l-0.234,0l0,1.315c1.134,0.002 2.268,0.009 3.402,0.02Zm-4.791,-0.907l-3.11,0c0.001,0.187 0.003,0.373 0.011,0.559c0.009,0.156 0.12,0.291 0.264,0.341c0.867,-0.007 1.735,-0.011 2.603,-0.013c0.133,-0.061 0.23,-0.197 0.232,-0.349l0,-0.538Zm1.408,-0.859l0,-4.485l-1.458,0c0.007,0.41 -0.001,0.821 -0.006,1.231c-0.012,0.335 -0.3,0.625 -0.637,0.637c-0.571,0.007 -1.143,0.007 -1.715,0c-0.249,-0.009 -0.472,-0.17 -0.576,-0.391c-0.496,0.036 -0.993,0.057 -1.49,0.073l0,3.082c0.013,-0.053 0.03,-0.104 0.052,-0.15c0.118,-0.252 0.381,-0.427 0.664,-0.419c0.072,0.005 0.15,0.011 0.227,0.022c0,-0.091 0,-0.183 0,-0.274c0.005,-0.117 0.096,-0.211 0.216,-0.216c1.182,0 2.365,-0.046 3.547,0.001c0.111,0.013 0.194,0.102 0.198,0.215c0,0.697 0.009,1.395 0,2.093c-0.004,0.115 -0.035,0.226 -0.085,0.326c0.204,0 0.409,0 0.613,0l0,-1.529c0.005,-0.118 0.097,-0.211 0.216,-0.216c0.078,0 0.156,0 0.234,0Zm-4.941,0.054c-0.118,-0.036 -0.235,-0.068 -0.339,-0.026c-0.367,0.147 -0.247,0.895 0.239,1.112c0.032,0.013 0.066,0.026 0.1,0.038c-0.003,-0.375 -0.001,-0.749 0,-1.124Zm3.533,0.37l0,-0.883l-3.1,0c0,0.296 -0.005,0.592 -0.008,0.887c1.036,-0.002 2.072,-0.038 3.108,-0.004Zm3.739,-3.615c-0.041,0.169 -0.155,0.321 -0.363,0.415c-0.347,0.157 -0.8,-0.055 -0.938,-0.415c-0.2,0.003 -0.4,0.003 -0.599,0.001l0,3.186c0.834,-0.008 1.668,-0.028 2.502,-0.014l0,-3.172c-0.201,0.002 -0.401,0.002 -0.602,-0.001Zm-4.226,-1.294l-2.127,0c0,0.168 0.003,0.962 0.006,1.265c0.024,0.096 0.112,0.169 0.211,0.172c0.568,0.007 1.138,0.035 1.705,0c0.137,-0.006 0.209,-0.182 0.205,-0.307l0,-1.13Zm3.57,0.812c-0.248,0.01 -0.38,0.508 -0.007,0.527c0.125,0.006 0.247,-0.086 0.272,-0.21c0.032,-0.157 -0.098,-0.319 -0.265,-0.317Zm-6.13,-0.05c-0.85,-0.037 -1.7,-0.126 -2.551,-0.108c-0.237,0.011 -0.333,0.507 0.02,0.497l2.532,-0.108c-0.001,-0.094 -0.001,-0.188 -0.001,-0.281Zm7.388,0.095l0,-0.857l-2.502,0l0,0.857c0.197,-0.002 0.395,-0.002 0.593,0c0.096,-0.275 0.372,-0.479 0.676,-0.475c0.27,0.01 0.496,0.22 0.595,0.476c0.213,-0.003 0.425,-0.004 0.638,-0.001Zm-8.815,-1.656l0,1.064c0.476,0.021 0.952,0.044 1.428,0.065c0,-0.11 0.001,-0.22 0.001,-0.33l-0.72,0c-0.116,-0.007 -0.208,-0.097 -0.215,-0.215l0,-0.579c-0.165,-0.001 -0.33,-0.003 -0.494,-0.005Zm0.925,0.368l0.72,0c0.852,-0.028 1.706,-0.028 2.558,0l1.9,0c0.976,0 1.953,-0.044 2.927,0l0.235,0l0,-0.358c-2.78,0.027 -5.561,0.027 -8.34,0l0,0.358Zm8.572,-0.802c0.324,0 0.648,-0.001 0.972,-0.001c0.08,0 0.15,-0.066 0.153,-0.148c0.008,-0.645 0,-1.291 0,-1.937c0,-0.081 -0.067,-0.15 -0.148,-0.153c-3.584,-0.046 -7.169,0 -10.754,0c-0.08,0.001 -0.148,0.066 -0.153,0.144c-0.025,0.647 0,1.294 0,1.941c0,0.082 0.067,0.15 0.148,0.153c0.313,0.004 0.626,0.008 0.939,0.01c0.017,-0.005 0.036,-0.008 0.055,-0.01l8.771,0l0.017,0.001Zm-2.152,-1.814c0.593,0.023 0.973,1.008 0.268,1.327c-0.438,0.198 -1.043,-0.191 -0.975,-0.721c0.043,-0.338 0.357,-0.61 0.707,-0.606Zm1.837,0c0.593,0.023 0.974,1.008 0.268,1.327c-0.438,0.198 -1.042,-0.191 -0.975,-0.721c0.043,-0.338 0.357,-0.61 0.707,-0.606Zm-0.025,0.431c-0.25,0.009 -0.379,0.517 0,0.527c0.125,0.003 0.244,-0.093 0.267,-0.217c0.027,-0.156 -0.104,-0.312 -0.267,-0.31Zm-1.837,0c-0.248,0.009 -0.38,0.508 -0.007,0.526c0.124,0.007 0.247,-0.086 0.272,-0.21c0.032,-0.157 -0.099,-0.318 -0.265,-0.316Z"/></svg>