<svg width="361" height="290" viewBox="0 0 361 290" fill="none" xmlns="http://www.w3.org/2000/svg">
<path fill-rule="evenodd" clip-rule="evenodd" d="M308.966 185.554H323.504C343.985 185.554 360.647 171.016 360.647 153.145V93.3905C360.647 75.5194 343.985 60.9808 323.504 60.9808H308.966V10.4899C308.966 4.69703 303.584 0 296.944 0H63.7022C57.0633 0 51.6803 4.69641 51.6803 10.4899V235.671C51.6803 248.236 56.6068 259.807 64.8447 269.021H12.0218C5.38224 269.021 0 273.717 0 279.51C0 285.303 5.38224 290 12.0218 290C26.4702 290 334.295 290 348.626 290C355.265 290 360.648 285.304 360.648 279.51C360.648 273.717 355.266 269.02 348.626 269.02H295.803C304.04 259.807 308.967 248.234 308.967 235.67L308.966 185.554ZM308.966 81.9607H323.504C330.728 81.9607 336.604 87.088 336.604 93.3911V153.145C336.604 159.448 330.728 164.575 323.504 164.575H308.966V81.9607ZM246.704 269.021H113.943C96.2139 269.021 81.2696 258.432 76.97 244.123H283.677C279.378 258.433 264.433 269.021 246.704 269.021ZM284.923 223.143H75.724V20.9793H284.923V223.143Z" fill="black"/>
<path d="M168.153 166.157C177.7 169.023 183.363 158.74 192.443 163.706L201.175 186.986L159.339 188.371L168.153 166.157Z" fill="black"/>
<path fill-rule="evenodd" clip-rule="evenodd" d="M215.539 201.702L145.016 201.771C145.016 201.771 139.675 197.263 143.46 189.24C146.781 182.201 164.815 134.709 164.815 134.709L164.27 112.473L160.575 112.491L159.754 100.638L202.641 100.292L201.704 112.284L197.694 112.304L196.737 135.049C196.737 135.049 215.127 182.934 218.335 189.747C221.491 196.454 215.539 201.702 215.539 201.702ZM187.87 135.788L188.726 112.351L173.183 112.429L173.342 135.883L152.307 191.266L153.705 193.792L207.787 193.923L209.717 191.15L187.87 135.788Z" fill="black"/>
<path d="M184.241 92.1643C174.881 92.1643 175.305 78.7913 184.091 78.7913C192.844 78.7913 192.789 92.1643 184.241 92.1643Z" fill="black"/>
<path d="M187.713 63.2277C171.602 63.2277 172.331 40.2072 187.456 40.2072C202.522 40.2085 202.427 63.2277 187.713 63.2277Z" fill="black"/>
<path d="M169.256 74.3674C159.897 74.3674 160.32 60.9944 169.106 60.9944C177.859 60.9957 177.805 74.3674 169.256 74.3674Z" fill="black"/>
</svg>
