<!DOCTYPE svg PUBLIC "-//W3C//DTD SVG 1.1//EN" "http://www.w3.org/Graphics/SVG/1.1/DTD/svg11.dtd">
<!-- Uploaded to: SVG Repo, www.svgrepo.com, Transformed by: SVG Repo Mixer Tools -->
<svg width="100px" height="100px" viewBox="0 0 24 24" fill="none" xmlns="http://www.w3.org/2000/svg">
<g id="SVGRepo_bgCarrier" stroke-width="0"/>
<g id="SVGRepo_tracerCarrier" stroke-linecap="round" stroke-linejoin="round"/>
<g id="SVGRepo_iconCarrier"> <path fill-rule="evenodd" clip-rule="evenodd" d="M8.52805 3.65533C8.57316 2.94719 7.86204 2.46461 7.32835 2.93223C6.02355 4.0755 5.23563 5.95373 5.02384 8.04648C4.98816 8.3991 5.19946 8.66534 5.54637 8.59274C5.93181 8.51207 6.45037 8.37833 6.9739 8.38354C7.53334 8.3891 8.09847 8.51294 8.51317 8.59243C8.89307 8.66525 9.02081 8.39371 8.88798 8.03041C8.53496 7.06494 8.38161 5.95386 8.44554 4.95044L8.52805 3.65533ZM18.5539 10.479C18.7073 10.3411 18.7309 10.1207 18.6942 9.91769C18.6325 9.57596 18.564 9.24151 18.4943 8.9812C17.4241 4.98744 14.8151 2.18561 11.8808 1.86176C11.2566 1.79288 10.8044 2.47233 10.757 3.09848C10.7036 3.80305 10.5333 4.56573 10.4987 5.10877C10.4159 6.40807 10.7785 7.6917 11.5291 8.7562L12.376 9.95742C12.4094 10.0048 12.4451 10.0488 12.4899 10.0856C13.4549 10.8776 17.4575 11.4643 18.5539 10.479Z" fill="#000000" stroke="#000000"/> <path d="M20.64 11.76V11.76C17.9651 13.3824 14.6099 13.3824 11.935 11.76V11.76V11.76C9.30586 10.1411 5.98909 10.1411 3.35995 11.76V11.76" stroke="#000000" stroke-linecap="round"/> <circle cx="7.19996" cy="14.37" r="1.68" transform="rotate(-90 7.19996 14.37)" fill="#000000" stroke="#000000"/> <circle cx="16.8" cy="16.92" r="1.68" transform="rotate(90 16.8 16.92)" fill="#000000" stroke="#000000"/> <circle cx="11.94" cy="15.84" r="1.68" transform="rotate(90 11.94 15.84)" fill="#000000" stroke="#000000"/> <circle cx="13.02" cy="20.7" r="1.68" transform="rotate(90 13.02 20.7)" fill="#000000" stroke="#000000"/> <circle cx="8.15997" cy="19.35" r="1.68" transform="rotate(90 8.15997 19.35)" fill="#000000" stroke="#000000"/> </g>
</svg>