<svg width="18" height="31" viewBox="0 0 18 31" fill="none" xmlns="http://www.w3.org/2000/svg">
<path d="M17.9499 7.06924C17.9346 6.58593 17.8124 6.10735 17.5914 5.66852C17.2836 5.05444 16.7904 4.52394 16.1553 4.14773C16.2198 3.89528 16.2524 3.63696 16.2524 3.37656C16.2524 1.5147 14.6031 0 12.5757 0C12.1047 0 11.6343 0.0840783 11.1978 0.246291C10.7324 0.419103 10.3066 0.678965 9.94889 1.01471C9.44207 0.859046 8.91294 0.780267 8.37216 0.780267C7.40905 0.780267 6.47463 1.03358 5.66991 1.5128C4.96696 1.9314 4.39295 2.50262 3.99656 3.17521C3.89097 3.16662 3.78268 3.16218 3.67674 3.16218C1.64937 3.16218 0 4.67688 0 6.5387C0 8.40053 1.64937 9.91523 3.67674 9.91523C4.45171 9.91523 5.20602 9.68935 5.83048 9.27451C6.59785 9.69447 7.47065 9.91523 8.3722 9.91523C9.2549 9.91523 10.1084 9.70403 10.8636 9.30144C11.5975 10.2201 12.7768 10.7776 14.0291 10.7776C14.0967 10.7776 14.1639 10.7761 14.2306 10.773C15.8997 10.695 17.2968 9.65444 17.7751 8.2453C17.8967 7.88704 17.9598 7.38106 17.9499 7.06924ZM14.029 10.0615C14.029 10.0615 12.2317 10.0861 11.3149 8.62985C11.2606 8.54355 11.1687 8.48253 11.0627 8.46094C11.0347 8.45528 11.0065 8.45249 10.9784 8.45249C10.8997 8.45249 10.8222 8.47437 10.7564 8.51616C10.0539 8.9629 9.22944 9.19902 8.37216 9.19902C7.53074 9.19902 6.71919 8.97114 6.02529 8.53997C5.88012 8.44977 5.6873 8.45961 5.55387 8.564C5.03055 8.97354 4.3639 9.19902 3.6767 9.19902C2.07934 9.19902 0.779807 8.0056 0.779807 6.53867C0.779807 5.07174 2.07934 3.87831 3.6767 3.87831C3.99944 3.87831 4.32331 3.92912 4.62831 4.02695C4.97647 4.1386 5.29902 4.31038 5.57769 4.5325C5.81949 4.72522 6.02829 4.95568 6.1919 5.2178C6.26396 5.33321 6.39536 5.39785 6.53055 5.39785C6.59633 5.39785 6.66297 5.38252 6.72411 5.35036C6.91096 5.252 6.97557 5.03321 6.8685 4.86161C6.40706 4.12242 5.6627 3.5811 4.80311 3.32589C5.56085 2.20219 6.91435 1.49644 8.37216 1.49644C8.73455 1.49644 9.09059 1.53844 9.43579 1.62141C9.09535 2.13318 8.89894 2.73416 8.89894 3.37653C8.89894 3.57426 9.07351 3.73461 9.28887 3.73461C9.50422 3.73461 9.67879 3.57426 9.67879 3.37653C9.67879 3.24525 9.68963 3.11627 9.70971 2.99005C9.79405 2.46029 10.0489 1.98078 10.4215 1.60014C10.9675 1.04178 11.7624 0.71617 12.5757 0.71617C14.173 0.71617 15.4725 1.9096 15.4725 3.37653C15.4725 3.5228 15.4592 3.66819 15.4333 3.81171C14.997 3.65759 14.5236 3.57286 14.029 3.57286C13.8137 3.57286 13.6391 3.73322 13.6391 3.93095C13.6391 4.12868 13.8137 4.28903 14.029 4.28903C15.2499 4.28903 16.3101 4.9318 16.8303 5.86805C17.0537 6.27193 17.1718 6.72204 17.1718 7.17524C17.1718 8.76671 15.7619 10.0615 14.029 10.0615Z" fill="#F4F6F7"/>
<path d="M17.9499 7.06924C17.951 7.10451 17.9496 7.05893 17.9499 7.06924Z" fill="#F4F6F7"/>
<path d="M4.86176 10.5953C4.6464 10.5953 4.47183 10.7557 4.47183 10.9534V12.4318C4.47183 12.6295 4.6464 12.7899 4.86176 12.7899C5.07711 12.7899 5.25168 12.6295 5.25168 12.4318V10.9534C5.25168 10.7556 5.07711 10.5953 4.86176 10.5953Z" fill="#F4F6F7"/>
<path d="M4.86176 13.9628C4.6464 13.9628 4.47183 14.1232 4.47183 14.3209V14.7316C4.47183 14.9293 4.6464 15.0897 4.86176 15.0897C5.07711 15.0897 5.25168 14.9293 5.25168 14.7316V14.3209C5.25168 14.1231 5.07711 13.9628 4.86176 13.9628Z" fill="#F4F6F7"/>
<path d="M13.403 14.4146C13.1876 14.4146 13.0131 14.5749 13.0131 14.7727V15.1833C13.0131 15.381 13.1876 15.5414 13.403 15.5414C13.6183 15.5414 13.7929 15.381 13.7929 15.1833V14.7727C13.7929 14.5749 13.6183 14.4146 13.403 14.4146Z" fill="#F4F6F7"/>
<path d="M13.403 12.0737C13.1876 12.0737 13.0131 12.2341 13.0131 12.4318V12.8425C13.0131 13.0402 13.1876 13.2006 13.403 13.2006C13.6183 13.2006 13.7929 13.0402 13.7929 12.8425V12.4318C13.7929 12.234 13.6183 12.0737 13.403 12.0737Z" fill="#F4F6F7"/>
<path d="M10.6752 10.5953C10.4598 10.5953 10.2852 10.7557 10.2852 10.9534V14.6905C10.2852 14.8882 10.4598 15.0486 10.6752 15.0486C10.8905 15.0486 11.0651 14.8882 11.0651 14.6905V10.9534C11.0651 10.7556 10.8905 10.5953 10.6752 10.5953Z" fill="#F4F6F7"/>
<path d="M7.85789 13.5932C7.64253 13.5932 7.46796 13.7535 7.46796 13.9513V15.4297C7.46796 15.6274 7.64253 15.7878 7.85789 15.7878C8.07324 15.7878 8.24781 15.6274 8.24781 15.4297V13.9513C8.24781 13.7535 8.07324 13.5932 7.85789 13.5932Z" fill="#F4F6F7"/>
<path d="M7.85789 11.2935C7.64253 11.2935 7.46796 11.4538 7.46796 11.6515V12.0622C7.46796 12.26 7.64253 12.4203 7.85789 12.4203C8.07324 12.4203 8.24781 12.26 8.24781 12.0622V11.6515C8.24781 11.4538 8.07324 11.2935 7.85789 11.2935Z" fill="#F4F6F7"/>
<path d="M15.4206 25.6252H16.1461C17.1683 25.6252 17.9999 24.8969 17.9999 24.0017V21.0084C17.9999 20.1132 17.1683 19.3849 16.1461 19.3849H15.4206V16.8557C15.4206 16.5655 15.1519 16.3302 14.8205 16.3302H3.17938C2.84804 16.3302 2.57937 16.5655 2.57937 16.8557V28.1356C2.57937 28.7651 2.82526 29.3447 3.23641 29.8062H0.600011C0.268628 29.8062 0 30.0415 0 30.3317C0 30.6219 0.268628 30.8571 0.600011 30.8571C1.32113 30.8571 16.6847 30.8571 17.4 30.8571C17.7313 30.8571 18 30.6219 18 30.3317C18 30.0415 17.7314 29.8062 17.4 29.8062H14.7636C15.1747 29.3447 15.4206 28.765 15.4206 28.1356L15.4206 25.6252ZM15.4206 20.4359H16.1461C16.5067 20.4359 16.7999 20.6927 16.7999 21.0085V24.0017C16.7999 24.3174 16.5067 24.5743 16.1461 24.5743H15.4206V20.4359ZM12.313 29.8063H5.68693C4.80205 29.8063 4.05618 29.2758 3.84159 28.559H14.1584C13.9438 29.2759 13.1979 29.8063 12.313 29.8063ZM14.2206 27.5081H3.7794V17.3812H14.2206V27.5081Z" fill="#F4F6F7"/>
</svg>
