<svg width="361" height="616" viewBox="0 0 361 616" fill="none" xmlns="http://www.w3.org/2000/svg">
<path d="M359.644 141.123C359.337 131.475 356.888 121.921 352.462 113.16C346.295 100.902 336.413 90.3112 323.688 82.8011C324.98 77.7614 325.634 72.6045 325.634 67.4062C325.634 30.2379 292.587 0 251.966 0C242.53 0 233.105 1.67845 224.359 4.9167C215.034 8.36653 206.503 13.5542 199.336 20.2565C189.181 17.1491 178.58 15.5764 167.745 15.5764C148.448 15.5764 129.726 20.6333 113.602 30.2C99.518 38.5565 88.0172 49.9597 80.075 63.3866C77.9594 63.2151 75.7898 63.1264 73.6672 63.1264C33.0469 63.1264 0 93.3643 0 130.532C0 167.699 33.0469 197.937 73.6672 197.937C89.1945 197.937 104.308 193.428 116.82 185.147C132.195 193.53 149.682 197.937 167.745 197.937C185.431 197.937 202.532 193.721 217.663 185.684C232.368 204.024 255.996 215.154 281.087 215.154C282.441 215.154 283.788 215.122 285.125 215.06C318.567 213.504 346.559 192.731 356.142 164.601C358.577 157.449 359.843 147.348 359.644 141.123ZM281.085 200.857C281.085 200.857 245.074 201.348 226.705 172.277C225.616 170.555 223.776 169.336 221.652 168.905C221.092 168.792 220.526 168.737 219.962 168.737C218.387 168.737 216.833 169.173 215.515 170.008C201.439 178.926 184.921 183.64 167.745 183.64C150.886 183.64 134.626 179.091 120.723 170.483C117.814 168.682 113.951 168.879 111.277 170.963C100.792 179.138 87.4352 183.64 73.6664 183.64C41.6617 183.64 15.6242 159.815 15.6242 130.531C15.6242 101.247 41.6617 77.4226 73.6664 77.4226C80.1328 77.4226 86.6219 78.4369 92.7328 80.3899C99.7086 82.6188 106.171 86.0479 111.755 90.4821C116.599 94.3294 120.783 98.9301 124.061 104.163C125.505 106.467 128.138 107.757 130.846 107.757C132.164 107.757 133.499 107.451 134.724 106.809C138.468 104.845 139.763 100.478 137.617 97.0522C128.372 82.2957 113.458 71.4894 96.2352 66.3947C111.417 43.9622 138.536 29.8733 167.745 29.8733C175.005 29.8733 182.139 30.7118 189.055 32.3681C182.234 42.5847 178.299 54.5819 178.299 67.4055C178.299 71.3528 181.797 74.5539 186.112 74.5539C190.427 74.5539 193.924 71.3528 193.924 67.4055C193.924 64.7849 194.141 62.21 194.544 59.6902C196.234 49.1148 201.339 39.5423 208.805 31.9435C219.745 20.7969 235.672 14.2969 251.966 14.2969C283.97 14.2969 310.008 38.1212 310.008 67.4055C310.008 70.3256 309.741 73.2279 309.221 76.093C300.48 73.0163 290.995 71.325 281.085 71.325C276.77 71.325 273.273 74.526 273.273 78.4734C273.273 82.4208 276.77 85.6218 281.085 85.6218C305.547 85.6218 326.79 98.4533 337.211 117.144C341.688 125.206 344.055 134.192 344.055 143.239C344.055 175.009 315.806 200.857 281.085 200.857Z" fill="#F4F6F7"/>
<path d="M359.644 141.123C359.666 141.827 359.637 140.917 359.644 141.123Z" fill="#F4F6F7"/>
<path d="M97.4102 211.514C93.0953 211.514 89.5977 214.715 89.5977 218.662V248.176C89.5977 252.123 93.0953 255.324 97.4102 255.324C101.725 255.324 105.223 252.123 105.223 248.176V218.662C105.223 214.714 101.725 211.514 97.4102 211.514Z" fill="#F4F6F7"/>
<path d="M97.4102 278.739C93.0953 278.739 89.5977 281.94 89.5977 285.887V294.086C89.5977 298.033 93.0953 301.234 97.4102 301.234C101.725 301.234 105.223 298.033 105.223 294.086V285.887C105.223 281.939 101.725 278.739 97.4102 278.739Z" fill="#F4F6F7"/>
<path d="M268.542 287.757C264.227 287.757 260.73 290.959 260.73 294.906V303.104C260.73 307.051 264.227 310.252 268.542 310.252C272.857 310.252 276.355 307.051 276.355 303.104V294.906C276.355 290.958 272.857 287.757 268.542 287.757Z" fill="#F4F6F7"/>
<path d="M268.542 241.027C264.227 241.027 260.73 244.228 260.73 248.176V256.374C260.73 260.322 264.227 263.523 268.542 263.523C272.857 263.523 276.355 260.322 276.355 256.374V248.176C276.355 244.228 272.857 241.027 268.542 241.027Z" fill="#F4F6F7"/>
<path d="M213.888 211.514C209.573 211.514 206.075 214.715 206.075 218.662V293.266C206.075 297.213 209.573 300.414 213.888 300.414C218.202 300.414 221.7 297.213 221.7 293.266V218.662C221.7 214.714 218.202 211.514 213.888 211.514Z" fill="#F4F6F7"/>
<path d="M157.441 271.36C153.126 271.36 149.628 274.561 149.628 278.509V308.023C149.628 311.97 153.126 315.171 157.441 315.171C161.755 315.171 165.253 311.97 165.253 308.023V278.509C165.253 274.561 161.755 271.36 157.441 271.36Z" fill="#F4F6F7"/>
<path d="M157.441 225.451C153.126 225.451 149.628 228.652 149.628 232.599V240.798C149.628 244.745 153.126 247.946 157.441 247.946C161.755 247.946 165.253 244.745 165.253 240.798V232.599C165.253 228.651 161.755 225.451 157.441 225.451Z" fill="#F4F6F7"/>
<path d="M308.966 511.554H323.504C343.985 511.554 360.647 497.016 360.647 479.145V419.39C360.647 401.519 343.985 386.981 323.504 386.981H308.966V336.49C308.966 330.697 303.584 326 296.944 326H63.7022C57.0633 326 51.6803 330.696 51.6803 336.49V561.671C51.6803 574.236 56.6068 585.807 64.8447 595.021H12.0218C5.38224 595.021 0 599.717 0 605.51C0 611.303 5.38224 616 12.0218 616C26.4702 616 334.295 616 348.626 616C355.265 616 360.648 611.304 360.648 605.51C360.648 599.716 355.266 595.02 348.626 595.02H295.803C304.04 585.807 308.967 574.234 308.967 561.67L308.966 511.554ZM308.966 407.961H323.504C330.728 407.961 336.604 413.088 336.604 419.391V479.145C336.604 485.448 330.728 490.575 323.504 490.575H308.966V407.961ZM246.704 595.021H113.943C96.2139 595.021 81.2696 584.432 76.97 570.123H283.677C279.378 584.433 264.433 595.021 246.704 595.021ZM284.923 549.143H75.724V346.979H284.923V549.143Z" fill="#F4F6F7"/>
</svg>
