<?xml version="1.0" ?><!DOCTYPE svg  PUBLIC '-//W3C//DTD SVG 1.1//EN'  'http://www.w3.org/Graphics/SVG/1.1/DTD/svg11.dtd'><!-- Uploaded to: SVG Repo, www.svgrepo.com, Generator: SVG Repo Mixer Tools -->
<svg fill="#000000" width="800px" height="800px" viewBox="0 0 16 16" style="fill-rule:evenodd;clip-rule:evenodd;stroke-linejoin:round;stroke-miterlimit:1.41421;" version="1.1" xml:space="preserve" xmlns="http://www.w3.org/2000/svg" xmlns:serif="http://www.serif.com/" xmlns:xlink="http://www.w3.org/1999/xlink"><rect height="15.36" id="_2" style="fill:none;" width="15.36" x="0" y="0"/><path d="M8.505,10.903c-0.013,-0.109 -0.105,-0.192 -0.215,-0.191c-0.508,0 -1.874,0.001 -2.378,0.001c-0.108,0 -0.2,0.081 -0.214,0.188c-0.065,0.494 -0.242,1.843 -0.344,2.624c-0.005,0.032 0.005,0.065 0.026,0.089c0.021,0.025 0.052,0.039 0.085,0.039c1.088,0.015 2.177,0.046 3.264,0.011c0.033,-0.001 0.063,-0.016 0.084,-0.041c0.021,-0.025 0.03,-0.058 0.024,-0.09c-0.117,-0.776 -0.275,-2.131 -0.332,-2.63Zm0.844,-0.266c-0.006,-0.037 -0.028,-0.07 -0.059,-0.091c-0.032,-0.021 -0.071,-0.027 -0.108,-0.017c-0.051,0.013 -0.108,0.028 -0.157,0.041c-0.065,0.017 -0.108,0.08 -0.1,0.147c0.054,0.425 0.24,1.899 0.346,2.745c0.005,0.038 0.028,0.071 0.062,0.088c0.034,0.017 0.074,0.016 0.107,-0.003c0.192,-0.124 0.334,-0.33 0.302,-0.539c0,0 -0.304,-1.834 -0.393,-2.371Zm-4.334,-0.109c-0.037,-0.009 -0.076,-0.003 -0.107,0.018c-0.032,0.02 -0.054,0.053 -0.06,0.09c-0.135,0.779 -0.303,1.628 -0.395,2.395c-0.001,0.015 -0.002,0.029 -0.002,0.044c0.001,0.184 0.133,0.354 0.3,0.461c0.032,0.019 0.071,0.02 0.105,0.003c0.033,-0.016 0.056,-0.049 0.059,-0.086c0.095,-0.851 0.301,-2.308 0.362,-2.732c0.01,-0.068 -0.033,-0.133 -0.099,-0.15c-0.051,-0.013 -0.11,-0.029 -0.163,-0.043Zm-0.127,-0.571c0.007,0.058 0.049,0.106 0.106,0.121c0.231,0.061 0.808,0.211 0.808,0.211c1.742,0 1.84,0.18 3.395,-0.21c0.059,-0.012 0.103,-0.061 0.11,-0.121c0.009,-0.057 0.017,-0.131 0.025,-0.201c0.005,-0.048 -0.014,-0.094 -0.05,-0.125c-0.037,-0.03 -0.086,-0.04 -0.132,-0.027c-0.184,0.058 -0.369,0.106 -0.551,0.114l-3,0c-0.019,-0.001 -0.036,-0.003 -0.054,-0.007c0,0 -0.296,-0.078 -0.505,-0.132c-0.045,-0.012 -0.093,-0.001 -0.129,0.03c-0.035,0.031 -0.053,0.077 -0.048,0.123c0.009,0.077 0.018,0.161 0.025,0.224Zm3.795,-5.577c0.004,-0.063 -0.018,-0.125 -0.061,-0.172c-0.044,-0.046 -0.104,-0.072 -0.168,-0.072c-0.595,0 -2.115,0 -2.711,0c-0.063,0 -0.123,0.026 -0.167,0.072c-0.043,0.047 -0.065,0.109 -0.061,0.172c0.062,0.906 0.278,4.06 0.326,4.767c0.006,0.08 0.072,0.142 0.152,0.142c0.439,0 1.773,0 2.212,0c0.08,0 0.146,-0.062 0.152,-0.142c0.048,-0.707 0.264,-3.861 0.326,-4.767Zm1.452,0.01c0.007,-0.065 -0.014,-0.129 -0.057,-0.178c-0.043,-0.049 -0.106,-0.076 -0.171,-0.076c-0.173,0 -0.399,0 -0.563,0c-0.12,0 -0.22,0.093 -0.228,0.213c-0.057,0.831 -0.263,3.851 -0.32,4.676c-0.003,0.048 0.017,0.096 0.055,0.127c0.037,0.031 0.088,0.042 0.135,0.03c0.162,-0.041 0.324,-0.084 0.486,-0.129c0.011,-0.004 0.022,-0.008 0.032,-0.013c0.001,-0.003 0.005,-0.014 0.033,-0.02c0.051,-0.038 0.087,-0.096 0.096,-0.163c0,0 0.391,-3.486 0.502,-4.467Zm-5.053,-0.041c-0.008,-0.12 -0.108,-0.213 -0.228,-0.213c-0.493,0 -1.667,0 -1.671,0c0,0 0,0 0,0c-0.073,0.002 -0.074,0.182 -0.017,0.21c0,0 0,0 0,0c0.002,0.001 0.832,0.386 0.832,0.386c0.1,0.054 0.105,0.066 0.123,0.171c0.148,1.322 0.272,2.647 0.446,3.965c0.015,0.088 0.079,0.161 0.166,0.187c0,0 0.277,0.072 0.478,0.125c0.048,0.012 0.098,0.001 0.136,-0.03c0.037,-0.031 0.058,-0.079 0.054,-0.127c-0.056,-0.827 -0.262,-3.843 -0.319,-4.674Zm6.125,0.369c0.102,0.004 0.129,0.033 0.172,0.085l0.318,0.419c0.042,0.06 0.042,0.085 0.044,0.13l0,2.027c-0.004,0.073 -0.018,0.091 -0.042,0.127c-0.186,0.252 -0.482,0.527 -0.242,0.714c0.236,0.183 0.48,-0.264 0.728,-0.577c0.006,-0.008 0.027,-0.107 0.027,-0.107c0.026,-0.78 0.034,-1.561 0,-2.341c-0.019,-0.227 -0.346,-0.569 -0.598,-0.862c-0.136,-0.149 -0.385,-0.092 -0.628,-0.091c-0.109,0.001 -0.22,0.002 -0.297,0.002c-0.055,0.001 -0.101,0.042 -0.108,0.097c-0.01,0.072 -0.023,0.173 -0.033,0.252c-0.004,0.031 0.006,0.063 0.027,0.087c0.021,0.024 0.051,0.038 0.083,0.038c0.195,0 0.549,0 0.549,0Zm-6.06,-1.144c-0.03,0.013 -0.047,0.045 -0.041,0.077c0.006,0.031 0.034,0.055 0.067,0.055c0.846,0 3.006,0 3.852,0c0.033,0 0.061,-0.024 0.067,-0.055c0.006,-0.032 -0.011,-0.064 -0.041,-0.077c-0.55,-0.224 -1.626,-0.663 -1.773,-0.723c-0.011,-0.005 -0.023,-0.005 -0.034,-0.003c0,0 0,0 0,0c-0.077,0.02 -0.157,0.022 -0.234,0.008c-0.043,-0.009 -0.088,-0.004 -0.129,0.013c-0.258,0.103 -1.223,0.497 -1.734,0.705Zm2.055,-1.219c0.007,0.003 0.015,0.003 0.021,0c0.007,-0.003 0.012,-0.009 0.015,-0.016c0,0 0,0 0,0c0,0 0.001,-0.001 0.001,-0.002c0.073,-0.226 0.147,-0.563 0.149,-0.586c0,0 0,0 0,0c0.007,-0.107 -0.296,-0.061 -0.52,-0.061c0,0 0,0 0,0c-0.123,0.002 -0.035,0.434 0.076,0.632c0.015,0.025 0.046,0.034 0.073,0.024c0,0 0,0 0,0c0.001,0 0.001,0 0.001,0c0.046,-0.016 0.06,-0.019 0.117,-0.013c0,0 0,0 0,0c0.023,0.005 0.023,0.005 0.045,0.013l0.022,0.009Z"/></svg>