<svg width="800" height="800" viewBox="0 0 800 800" fill="none" xmlns="http://www.w3.org/2000/svg">
<path d="M727.087 326.981H472.737V72.8426C472.737 32.6153 440.28 0 400.053 0C359.826 0 327.386 32.6153 327.386 72.8602V327.157H72.9131C32.6858 327.157 -0.0175918 359.773 2.86084e-05 400.018C-0.0175918 420.122 8.1054 438.553 21.2678 451.716C34.4479 464.913 52.6321 473.248 72.7193 473.248H327.386V727.193C327.386 747.315 335.369 765.535 348.549 778.679C361.729 791.859 379.86 800.018 399.982 800.018C440.192 800.018 472.737 767.402 472.737 727.193V473.23H727.087C767.314 473.23 799.93 440.333 799.912 400.106C799.894 359.896 767.279 326.981 727.087 326.981Z" fill="black"/>
</svg>
