<?xml version="1.0" ?><!DOCTYPE svg  PUBLIC '-//W3C//DTD SVG 1.1//EN'  'http://www.w3.org/Graphics/SVG/1.1/DTD/svg11.dtd'><!-- Uploaded to: SVG Repo, www.svgrepo.com, Generator: SVG Repo Mixer Tools -->
<svg fill="#000000" width="800px" height="800px" viewBox="0 0 16 16" style="fill-rule:evenodd;clip-rule:evenodd;stroke-linejoin:round;stroke-miterlimit:1.41421;" version="1.1" xml:space="preserve" xmlns="http://www.w3.org/2000/svg" xmlns:serif="http://www.serif.com/" xmlns:xlink="http://www.w3.org/1999/xlink"><rect height="15.36" id="_8" style="fill:none;" width="15.36" x="0" y="0"/><path d="M11.803,13.159c-0.007,0.001 -0.014,0.002 -0.021,0.003c-0.002,0 -0.004,0 -0.006,0c-0.097,0 -3.049,0 -3.146,0c-0.002,0 -0.003,0 -0.005,0c-0.004,-0.001 -0.008,-0.001 -0.011,-0.001c-0.004,-0.001 -0.007,-0.001 -0.011,-0.001c-0.097,0 -1.489,0.001 -1.562,0.001c-0.002,0 -0.004,0 -0.006,0c-0.005,0 -0.011,0 -0.016,0.001c-0.001,0 -0.002,0 -0.003,0c-1.004,0.012 -2.008,0.012 -3.013,0c-0.001,0 -0.001,0 -0.002,0c-0.002,-0.001 -0.004,-0.001 -0.006,-0.001m-1.249,0.001c-0.001,0 -0.001,0 -0.001,0c-0.029,0.001 -0.053,0.013 -0.073,0.033c-0.105,0.109 -0.081,0.445 0.061,0.463c0.015,0.001 0.043,0.003 0.043,0.003l9.236,0.019c0,0 0.223,-0.014 0.329,-0.022c0.16,-0.02 0.166,-0.416 0.031,-0.486c-0.002,-0.001 -0.003,-0.002 -0.005,-0.003c-0.009,-0.004 -0.019,-0.006 -0.028,-0.007c-0.012,-0.001 -0.029,-0.002 -0.036,-0.002c-0.003,-0.001 -0.005,-0.001 -0.008,-0.001c-0.208,0 -9.34,0.003 -9.369,0.003c0,0 0,0 0,0c-0.003,0 -0.121,0 -0.18,0Zm4.623,-3.242c-0.001,-0.054 -0.045,-0.097 -0.098,-0.097c-0.518,0 -2.977,0 -3.496,0c-0.054,0 -0.097,0.043 -0.098,0.097c-0.009,0.62 -0.01,1.24 0.003,1.86c0,0.008 0.001,0.016 0.004,0.024c0.008,0.032 0.009,0.067 0.002,0.1c-0.002,0.008 -0.003,0.015 -0.002,0.023c0.003,0.166 0.008,0.332 0.014,0.497c0,0.001 0.001,0.001 0.001,0.002c0.009,0.146 0.125,0.273 0.268,0.3c0.005,0.001 0.011,0.001 0.017,0.001c0.14,0.001 2.899,-0.001 3.059,-0.001c0.007,0 0.014,0 0.021,-0.002c0.137,-0.031 0.248,-0.154 0.257,-0.298c0,-0.001 0,-0.001 0,-0.002c0.031,-0.834 0.062,-1.67 0.048,-2.504Zm1.573,-1.826c-0.026,0 -0.051,0.01 -0.07,0.028c-0.018,0.019 -0.029,0.044 -0.029,0.07c0,0.607 0,3.83 0,4.435c0,0.026 0.011,0.051 0.029,0.07c0.018,0.018 0.043,0.028 0.069,0.028c0.413,0 2.007,-0.001 2.456,-0.001c0.03,0 0.057,-0.013 0.076,-0.035c0.018,-0.023 0.026,-0.053 0.02,-0.081l-0.29,-1.496c0,-0.002 -0.478,-2.459 -0.57,-2.935c-0.009,-0.046 -0.049,-0.08 -0.096,-0.079c-0.532,0.001 -1.064,-0.001 -1.595,-0.004Zm-5.678,1.869c0,-0.027 -0.01,-0.052 -0.029,-0.07c-0.018,-0.019 -0.044,-0.029 -0.07,-0.029c-0.271,0.001 -0.505,0.027 -0.52,0.257c0,0 0,0 0,0c-0.016,0.426 -0.016,0.853 0,1.279c0,0.001 0,0.001 0,0.002c0.009,0.132 0.121,0.244 0.254,0.253c0,0 0,0 0.001,0c0.087,0.003 0.179,-0.002 0.268,-0.007c0.052,-0.002 0.093,-0.045 0.093,-0.098c-0.001,-0.529 0.001,-1.058 0.003,-1.587Zm3.983,-0.581c0.027,0.001 0.054,-0.01 0.073,-0.029c0.019,-0.02 0.029,-0.046 0.028,-0.073c-0.007,-0.144 -0.016,-0.288 -0.027,-0.431c0,0 0,-0.001 0,-0.001c-0.004,-0.032 -0.033,-0.057 -0.066,-0.057c-1.164,0 -2.327,0 -3.49,0c0,0 0,0 0,0c-0.036,0.001 -0.064,0.027 -0.067,0.06c0,0 0,0.001 0,0.001c-0.003,0.147 -0.007,0.293 -0.01,0.44c-0.001,0.026 0.01,0.052 0.028,0.07c0.019,0.019 0.044,0.03 0.071,0.03c1.153,-0.007 2.307,-0.045 3.46,-0.01Zm-1.599,-1.196c0,-0.026 -0.01,-0.051 -0.029,-0.07c-0.018,-0.018 -0.044,-0.028 -0.07,-0.028c-0.026,0 -0.053,0.001 -0.08,0.001c-0.026,-0.001 -0.051,0.01 -0.069,0.028c-0.018,0.019 -0.029,0.043 -0.029,0.069c0,0.018 0,0.037 0,0.055c0,0.026 0.011,0.05 0.029,0.069c0.018,0.018 0.043,0.028 0.069,0.028c0.027,0 0.054,0 0.081,0c0.026,0.001 0.051,-0.01 0.07,-0.028c0.018,-0.019 0.028,-0.043 0.028,-0.069c0,-0.018 0,-0.037 0,-0.055Zm0.442,-1.784c0,-0.01 -0.002,-0.021 -0.005,-0.03c-0.088,-0.181 -0.597,-0.106 -0.994,-0.106c0,0 0,0 0,0c-0.087,0.001 -0.162,0.073 -0.165,0.159c0,0 0,0 0,0c-0.005,0.359 -0.022,0.718 0,1.076c0,0 0,0 0,0c0.022,0.237 0.584,0.178 1.017,0.15c0,0 0,0 0.001,0c0.08,-0.007 0.147,-0.077 0.15,-0.158c0,0 0,-0.001 0,-0.001c0.004,-0.272 0.015,-0.545 0.01,-0.817c0,-0.007 -0.002,-0.015 -0.003,-0.022c-0.003,-0.01 -0.005,-0.021 -0.006,-0.031c0,-0.003 0,-0.005 -0.001,-0.008c-0.002,-0.07 -0.003,-0.141 -0.004,-0.212Zm1.511,0.231c0,0.004 -0.001,0.009 -0.001,0.013c-0.006,0.285 -0.014,0.57 0.005,0.855c0,0 0,0 0,0c0.007,0.081 0.076,0.147 0.158,0.151c0,0 0.001,0 0.001,0c1.567,0.02 4.676,0.003 4.781,0.002c0.002,0 0.004,0 0.005,0c0.008,-0.001 0.029,-0.002 0.041,-0.003c0,0 0,0 0,0c0.081,-0.007 0.147,-0.076 0.151,-0.158c0,0 0,-0.001 0,-0.001c0.004,-0.358 0.022,-0.717 -0.001,-1.075c0,0 0,-0.001 0,-0.001c-0.007,-0.08 -0.077,-0.147 -0.158,-0.15c-0.001,0 -0.001,0 -0.001,0c-1.604,-0.021 -3.208,0 -4.812,0c-0.001,0 -0.001,0 -0.001,0c-0.083,0.001 -0.155,0.067 -0.164,0.148c0,0.002 0,0.004 0,0.006c-0.001,0.061 -0.001,0.122 -0.001,0.184c0,0.001 0,0.002 0,0.003c0,0.009 -0.001,0.017 -0.003,0.026Zm-3.106,0.104c0,-0.054 -0.044,-0.098 -0.098,-0.098c-0.027,0 -0.055,0 -0.081,0c-0.055,0 -0.098,0.044 -0.098,0.098c0,0.127 0,0.347 0,0.463c0,0.043 0.035,0.078 0.078,0.078c0.03,0 0.066,0 0.101,0c0.026,0 0.051,-0.01 0.069,-0.028c0.018,-0.019 0.029,-0.044 0.029,-0.07c0,-0.12 0,-0.323 0,-0.443Zm2.061,0.084c-0.008,0 -0.016,0.003 -0.022,0.009c-0.006,0.006 -0.009,0.014 -0.009,0.022c0,0 0,0 0,0c0,0 0,0.001 0,0.001c0,0.004 0,0.08 0,0.146c0,0.054 0.044,0.098 0.098,0.098c0.118,0 0.314,0 0.433,0c0.027,0 0.052,-0.011 0.071,-0.03c0.018,-0.019 0.028,-0.045 0.027,-0.072c-0.001,-0.025 -0.002,-0.051 -0.003,-0.076c-0.002,-0.053 -0.045,-0.095 -0.098,-0.095c-0.166,0.001 -0.331,-0.001 -0.497,-0.003Zm0.07,-1.814c-0.027,-0.001 -0.052,0.009 -0.071,0.028c-0.019,0.018 -0.03,0.044 -0.03,0.07c0,0.256 0,0.928 0,1.182c0,0.026 0.01,0.051 0.029,0.069c0.019,0.018 0.044,0.029 0.07,0.028c0.175,-0.001 0.351,-0.001 0.527,0.001c0.01,0 0.019,-0.007 0.021,-0.018c0,0 0,0 0,0c0.001,-0.003 0.001,-0.006 0.001,-0.008c0,-0.069 0,-0.94 0,-1.241c0,-0.026 -0.011,-0.052 -0.03,-0.07c-0.019,-0.018 -0.044,-0.028 -0.071,-0.028c-0.135,0.002 -0.292,-0.007 -0.446,-0.013Zm-1.081,-2.618c-0.026,-0.001 -0.051,0.01 -0.07,0.028c-0.018,0.018 -0.029,0.043 -0.029,0.069c-0.001,0.327 -0.006,0.628 0.063,0.887c0.124,0.463 0.433,0.868 0.845,1.119c0,0 0.001,0.001 0.001,0.001c0.005,0.003 0.067,0.04 0.102,0.061c0.016,0.009 0.034,0.014 0.052,0.014c0.228,-0.004 0.456,-0.004 0.683,0c0.019,0 0.037,-0.005 0.053,-0.015c0.591,-0.365 1.004,-0.976 1.01,-1.66c0,0 0,0 0,-0.001c0,-0.009 0,-0.257 0,-0.401c0,-0.026 -0.01,-0.051 -0.029,-0.069c-0.019,-0.019 -0.044,-0.029 -0.071,-0.029c-0.87,0.015 -1.74,-0.001 -2.61,-0.004Zm-0.259,-0.464c0,0.008 0.003,0.015 0.009,0.021c0.005,0.005 0.013,0.008 0.021,0.008c0,0 0,0 0,0c0.001,0 0.001,0 0.002,0c0.05,0 2.426,0 2.942,0c0.054,0 0.097,-0.044 0.097,-0.098c0,-0.021 0,-0.042 0,-0.063c0.001,-0.054 -0.043,-0.097 -0.096,-0.098c-0.339,-0.003 -1.521,-0.014 -2.877,-0.015c-0.026,0 -0.051,0.01 -0.07,0.029c-0.018,0.018 -0.028,0.043 -0.028,0.069c0,0.052 0,0.112 0,0.147Z"/></svg>