<?xml version="1.0" ?><!DOCTYPE svg  PUBLIC '-//W3C//DTD SVG 1.1//EN'  'http://www.w3.org/Graphics/SVG/1.1/DTD/svg11.dtd'><!-- Uploaded to: SVG Repo, www.svgrepo.com, Generator: SVG Repo Mixer Tools -->
<svg fill="#000000" width="800px" height="800px" viewBox="0 0 16 16" style="fill-rule:evenodd;clip-rule:evenodd;stroke-linejoin:round;stroke-miterlimit:1.41421;" version="1.1" xml:space="preserve" xmlns="http://www.w3.org/2000/svg" xmlns:serif="http://www.serif.com/" xmlns:xlink="http://www.w3.org/1999/xlink"><rect height="15.36" id="_6" style="fill:none;" width="15.36" x="0" y="0"/><path d="M9.706,11.613c0.09,0 0.162,0.072 0.162,0.162c0,0.32 0,1.007 0,1.008c0,0 0,0.001 0,0.001c-0.007,0.464 -0.398,0.863 -0.856,0.882c-0.001,0 -0.002,0 -0.003,0c-1.448,0.019 -2.896,0.019 -4.344,0c-0.001,0 -0.002,0 -0.004,0c-0.437,-0.018 -0.813,-0.378 -0.853,-0.81c0,-0.001 0,-0.002 0,-0.003c-0.023,-0.356 -0.032,-0.715 -0.034,-1.078c0,-0.043 0.017,-0.084 0.047,-0.114c0.03,-0.031 0.072,-0.048 0.115,-0.048c0.862,0 4.909,0 5.77,0Zm0.593,-1.776c0,-0.109 0.001,-0.14 0.139,-0.16c0.146,-0.022 0.369,-0.054 0.468,-0.06c0.028,-0.001 0.028,-0.001 0.056,0c0.576,0.026 1.077,0.517 1.099,1.112c0.012,0.908 -0.344,1.801 -1.184,2.156c-0.138,0.055 -0.354,0.145 -0.496,0.204c-0.029,0.013 -0.063,0.008 -0.088,-0.011c-0.025,-0.019 -0.039,-0.05 -0.035,-0.082c0.012,-0.1 0.027,-0.225 0.035,-0.294c0.004,-0.033 0.026,-0.061 0.057,-0.072c0,0 0,0 0,0c0.252,-0.092 0.501,-0.184 0.704,-0.341c0.444,-0.343 0.584,-0.912 0.576,-1.549c-0.014,-0.381 -0.368,-0.739 -0.742,-0.688l-0.012,0.002c-0.127,0.027 -0.253,0.056 -0.379,0.085c-0.048,0.011 -0.084,0.012 -0.137,-0.031c-0.061,-0.048 -0.061,-0.077 -0.061,-0.126c0,-0.049 0,-0.1 0,-0.145Zm-0.593,-0.649c0.043,0 0.084,0.017 0.115,0.047c0.03,0.031 0.047,0.072 0.047,0.115c0,0.219 0,0.591 0,0.634c0,0.003 0,0.007 -0.001,0.01c0,0.008 0,0.016 0,0.023c0,0.004 0.001,0.007 0.001,0.011c0,0.056 0,0.687 0,0.991c0,0.089 -0.072,0.161 -0.162,0.161c-0.86,0.001 -4.9,0.002 -5.766,0.002c-0.043,0 -0.085,-0.018 -0.115,-0.048c-0.03,-0.031 -0.047,-0.073 -0.046,-0.116c0.008,-0.555 0.023,-1.113 0.026,-1.669c0,-0.089 0.073,-0.161 0.162,-0.161c0.857,0 4.88,0 5.739,0Zm0.436,-0.422c0.047,-0.003 0.094,-0.006 0.141,-0.01c0.119,-0.015 0.125,-0.27 -0.004,-0.28c-2.292,-0.056 -4.585,0 -6.878,0c-0.132,0.003 -0.139,0.271 -0.007,0.281c0.054,0.001 0.108,0.002 0.162,0.004c0.011,-0.002 0.022,-0.004 0.034,-0.004c0.028,0 0.085,0 0.085,0l6.328,-0.004c0,0 0.069,0.003 0.103,0.005c0.012,0.002 0.025,0.005 0.036,0.008Zm-6.136,-5.479c0.003,0 0.007,0 0.01,0c0.005,0 0.009,0.001 0.014,0.001c0.002,0 0.005,0 0.008,0c0.029,0 0.199,0 0.32,0c0.074,0 0.137,0.052 0.151,0.124c0.133,0.661 0.755,3.764 0.899,4.483c0.007,0.036 -0.002,0.074 -0.026,0.103c-0.024,0.029 -0.059,0.046 -0.096,0.046c0,0 0,0 0,0c-0.039,0 -0.074,-0.024 -0.087,-0.061c-0.177,-0.478 -1.345,-3.643 -1.657,-4.489c-0.017,-0.047 -0.01,-0.1 0.018,-0.141c0.029,-0.042 0.076,-0.066 0.127,-0.066c0.136,0 0.289,0 0.319,0Zm1.627,0.001c0.079,0 0.146,0.06 0.153,0.139c0.066,0.686 0.356,3.699 0.428,4.448c0.004,0.043 -0.01,0.086 -0.039,0.118c-0.03,0.032 -0.071,0.051 -0.115,0.051c-0.019,0 -0.038,0 -0.056,0c-0.074,0 -0.137,-0.052 -0.151,-0.124c-0.131,-0.65 -0.735,-3.667 -0.892,-4.447c-0.009,-0.046 0.003,-0.093 0.032,-0.129c0.03,-0.035 0.073,-0.056 0.12,-0.056c0.157,0 0.378,0 0.52,0Zm1.623,0c0.044,0 0.085,0.018 0.114,0.051c0.029,0.032 0.044,0.075 0.04,0.118c-0.072,0.749 -0.362,3.761 -0.428,4.447c-0.008,0.079 -0.074,0.14 -0.153,0.14c-0.009,0 -0.017,0 -0.026,0c-0.079,0 -0.145,-0.061 -0.153,-0.14c-0.066,-0.686 -0.356,-3.698 -0.428,-4.447c-0.004,-0.043 0.01,-0.086 0.04,-0.118c0.029,-0.033 0.07,-0.051 0.114,-0.051c0.232,0 0.648,0 0.88,0Zm1.263,0c0.047,0 0.09,0.021 0.12,0.056c0.029,0.036 0.041,0.083 0.032,0.129c-0.157,0.78 -0.761,3.796 -0.892,4.446c-0.014,0.072 -0.077,0.124 -0.151,0.124c-0.018,0 -0.037,0 -0.056,0c-0.044,0 -0.085,-0.018 -0.115,-0.05c-0.029,-0.032 -0.043,-0.075 -0.039,-0.119c0.072,-0.749 0.362,-3.761 0.428,-4.447c0.007,-0.079 0.074,-0.139 0.153,-0.139c0.142,0 0.363,0 0.52,0Zm1.426,-0.001c0.05,0 0.098,0.024 0.127,0.066c0.028,0.041 0.035,0.094 0.018,0.141c-0.312,0.846 -1.48,4.01 -1.656,4.489c-0.014,0.036 -0.049,0.06 -0.087,0.06c-0.001,0 -0.001,0 -0.001,0c-0.037,0 -0.072,-0.016 -0.096,-0.045c-0.024,-0.029 -0.033,-0.067 -0.026,-0.104c0.144,-0.719 0.766,-3.822 0.899,-4.482c0.014,-0.072 0.077,-0.124 0.151,-0.124c0.121,0 0.291,0 0.32,0c0.003,0 0.006,0 0.008,0l0.009,-0.001c0.001,0 0.003,0 0.006,0c0.003,0 0.006,0 0.009,0c0.03,0 0.183,0 0.319,0Zm0.496,0.5c0.006,-0.017 0.021,-0.028 0.038,-0.031c0.06,-0.011 0.205,-0.035 0.276,-0.039c0.029,0 0.029,0 0.058,0c0.571,0.026 1.027,0.583 0.898,1.176c-0.064,0.263 -0.125,0.526 -0.239,0.769c-0.292,0.625 -0.846,1.115 -1.499,1.356c-0.198,0.07 -0.537,0.187 -0.715,0.248c-0.021,0.007 -0.044,0.001 -0.059,-0.015c-0.015,-0.016 -0.02,-0.039 -0.012,-0.059c0.048,-0.126 0.123,-0.321 0.15,-0.39c0.006,-0.016 0.019,-0.028 0.035,-0.034c0.276,-0.089 0.55,-0.174 0.793,-0.311c0.59,-0.334 0.949,-0.933 1.126,-1.661c0.074,-0.341 -0.205,-0.701 -0.575,-0.642c-0.097,0.019 -0.26,0.059 -0.361,0.084c-0.017,0.005 -0.035,-0.001 -0.047,-0.014c-0.012,-0.014 -0.016,-0.032 -0.01,-0.049c0.043,-0.117 0.117,-0.317 0.143,-0.388Zm-0.531,-2.107c0.043,0 0.082,0.022 0.103,0.059c0.022,0.036 0.023,0.081 0.003,0.118c-0.139,0.254 -0.387,0.708 -0.488,0.894c-0.028,0.05 -0.081,0.081 -0.139,0.08c-1.715,-0.038 -3.431,-0.038 -5.146,0c-0.058,0.001 -0.111,-0.03 -0.139,-0.08c-0.095,-0.174 -0.319,-0.584 -0.46,-0.843c-0.026,-0.048 -0.025,-0.106 0.003,-0.152c0.028,-0.047 0.078,-0.076 0.132,-0.076c1.076,0 5.171,0 6.131,0Z"/></svg>